<svg width="24" height="24" viewBox="0 0 24 24" fill="none" xmlns="http://www.w3.org/2000/svg">
<g id="vuesax/outline/add">
<g id="close">
<path id="Vector" d="M18.2146 19.2752L4.93958 6.00023C4.64967 5.71032 4.64967 5.22948 4.93958 4.93957C5.22949 4.64966 5.71033 4.64966 6.00024 4.93957L19.2753 18.2145C19.5652 18.5044 19.5652 18.9853 19.2753 19.2752C18.9854 19.5651 18.5046 19.5651 18.2146 19.2752Z" fill="#292D32"/>
<path id="Vector_2" d="M4.78978 19.2101C4.49987 18.9202 4.49987 18.4393 4.78978 18.1494L17.9997 4.93951C18.2896 4.6496 18.7704 4.6496 19.0604 4.93951C19.3503 5.22942 19.3503 5.71026 19.0604 6.00017L5.85044 19.2101C5.56053 19.5 5.0797 19.5 4.78978 19.2101Z" fill="#292D32"/>
</g>
</g>
</svg>
