<svg width="24" height="24" viewBox="0 0 24 24" fill="none" xmlns="http://www.w3.org/2000/svg">
<g id="Iconsax">
<path id="Vector" d="M2.96001 7.86001L5.96001 16.89C7.99001 22.96 11.3 22.96 13.32 16.89L14.21 14.21L16.89 13.32C22.96 11.3 22.96 7.98 16.89 5.96L7.87001 2.95001C3.82001 1.61001 1.61001 3.81001 2.96001 7.86001ZM8.34001 7.54001L12.16 11.34C12.31 11.49 12.38 11.68 12.38 11.87C12.38 12.06 12.31 12.25 12.16 12.4C12.0189 12.5395 11.8284 12.6177 11.63 12.6177C11.4316 12.6177 11.2412 12.5395 11.1 12.4L7.28001 8.6C6.99001 8.31 6.99001 7.83001 7.28001 7.54001C7.57001 7.25001 8.05001 7.25001 8.34001 7.54001Z" fill="#615EF0"/>
</g>
</svg>
